<?xml version="1.0" encoding="utf-8" ?>
<svg baseProfile="full" height="100%" version="1.1" width="100%" xmlns="http://www.w3.org/2000/svg" xmlns:ev="http://www.w3.org/2001/xml-events" xmlns:xlink="http://www.w3.org/1999/xlink"><defs /><g id="ltrbox"><circle cx="5mm" cy="5mm" fill="red" r="2.5mm" stroke="black" stroke-width="1" /><circle cx="10mm" cy="5mm" fill="red" r="2.5mm" stroke="black" stroke-width="1" /><circle cx="15mm" cy="5mm" fill="red" r="2.5mm" stroke="black" stroke-width="1" /><circle cx="20mm" cy="5mm" fill="red" r="2.5mm" stroke="black" stroke-width="1" /><circle cx="25mm" cy="5mm" fill="red" r="2.5mm" stroke="black" stroke-width="1" /><circle cx="5mm" cy="10mm" fill="red" r="2.5mm" stroke="black" stroke-width="1" /><circle cx="10mm" cy="10mm" fill="white" r="2.5mm" stroke="gray" stroke-width="0.2" /><circle cx="15mm" cy="10mm" fill="white" r="2.5mm" stroke="gray" stroke-width="0.2" /><circle cx="20mm" cy="10mm" fill="white" r="2.5mm" stroke="gray" stroke-width="0.2" /><circle cx="25mm" cy="10mm" fill="white" r="2.5mm" stroke="gray" stroke-width="0.2" /><circle cx="5mm" cy="15mm" fill="red" r="2.5mm" stroke="black" stroke-width="1" /><circle cx="10mm" cy="15mm" fill="white" r="2.5mm" stroke="gray" stroke-width="0.2" /><circle cx="15mm" cy="15mm" fill="white" r="2.5mm" stroke="gray" stroke-width="0.2" /><circle cx="20mm" cy="15mm" fill="white" r="2.5mm" stroke="gray" stroke-width="0.2" /><circle cx="25mm" cy="15mm" fill="white" r="2.5mm" stroke="gray" stroke-width="0.2" /><circle cx="5mm" cy="20mm" fill="red" r="2.5mm" stroke="black" stroke-width="1" /><circle cx="10mm" cy="20mm" fill="red" r="2.5mm" stroke="black" stroke-width="1" /><circle cx="15mm" cy="20mm" fill="red" r="2.5mm" stroke="black" stroke-width="1" /><circle cx="20mm" cy="20mm" fill="white" r="2.5mm" stroke="gray" stroke-width="0.2" /><circle cx="25mm" cy="20mm" fill="white" r="2.5mm" stroke="gray" stroke-width="0.2" /><circle cx="5mm" cy="25mm" fill="red" r="2.5mm" stroke="black" stroke-width="1" /><circle cx="10mm" cy="25mm" fill="white" r="2.5mm" stroke="gray" stroke-width="0.2" /><circle cx="15mm" cy="25mm" fill="white" r="2.5mm" stroke="gray" stroke-width="0.2" /><circle cx="20mm" cy="25mm" fill="white" r="2.5mm" stroke="gray" stroke-width="0.2" /><circle cx="25mm" cy="25mm" fill="white" r="2.5mm" stroke="gray" stroke-width="0.2" /><circle cx="5mm" cy="30mm" fill="red" r="2.5mm" stroke="black" stroke-width="1" /><circle cx="10mm" cy="30mm" fill="white" r="2.5mm" stroke="gray" stroke-width="0.2" /><circle cx="15mm" cy="30mm" fill="white" r="2.5mm" stroke="gray" stroke-width="0.2" /><circle cx="20mm" cy="30mm" fill="white" r="2.5mm" stroke="gray" stroke-width="0.2" /><circle cx="25mm" cy="30mm" fill="white" r="2.5mm" stroke="gray" stroke-width="0.2" /><circle cx="5mm" cy="35mm" fill="red" r="2.5mm" stroke="black" stroke-width="1" /><circle cx="10mm" cy="35mm" fill="red" r="2.5mm" stroke="black" stroke-width="1" /><circle cx="15mm" cy="35mm" fill="red" r="2.5mm" stroke="black" stroke-width="1" /><circle cx="20mm" cy="35mm" fill="red" r="2.5mm" stroke="black" stroke-width="1" /><circle cx="25mm" cy="35mm" fill="red" r="2.5mm" stroke="black" stroke-width="1" /></g><g id="ltrbox"><circle cx="35mm" cy="5mm" fill="red" r="2.5mm" stroke="black" stroke-width="1" /><circle cx="40mm" cy="5mm" fill="red" r="2.5mm" stroke="black" stroke-width="1" /><circle cx="45mm" cy="5mm" fill="red" r="2.5mm" stroke="black" stroke-width="1" /><circle cx="50mm" cy="5mm" fill="red" r="2.5mm" stroke="black" stroke-width="1" /><circle cx="55mm" cy="5mm" fill="white" r="2.5mm" stroke="gray" stroke-width="0.2" /><circle cx="35mm" cy="10mm" fill="white" r="2.5mm" stroke="gray" stroke-width="0.2" /><circle cx="40mm" cy="10mm" fill="red" r="2.5mm" stroke="black" stroke-width="1" /><circle cx="45mm" cy="10mm" fill="white" r="2.5mm" stroke="gray" stroke-width="0.2" /><circle cx="50mm" cy="10mm" fill="white" r="2.5mm" stroke="gray" stroke-width="0.2" /><circle cx="55mm" cy="10mm" fill="red" r="2.5mm" stroke="black" stroke-width="1" /><circle cx="35mm" cy="15mm" fill="white" r="2.5mm" stroke="gray" stroke-width="0.2" /><circle cx="40mm" cy="15mm" fill="red" r="2.5mm" stroke="black" stroke-width="1" /><circle cx="45mm" cy="15mm" fill="white" r="2.5mm" stroke="gray" stroke-width="0.2" /><circle cx="50mm" cy="15mm" fill="white" r="2.5mm" stroke="gray" stroke-width="0.2" /><circle cx="55mm" cy="15mm" fill="red" r="2.5mm" stroke="black" stroke-width="1" /><circle cx="35mm" cy="20mm" fill="white" r="2.5mm" stroke="gray" stroke-width="0.2" /><circle cx="40mm" cy="20mm" fill="red" r="2.5mm" stroke="black" stroke-width="1" /><circle cx="45mm" cy="20mm" fill="red" r="2.5mm" stroke="black" stroke-width="1" /><circle cx="50mm" cy="20mm" fill="red" r="2.5mm" stroke="black" stroke-width="1" /><circle cx="55mm" cy="20mm" fill="white" r="2.5mm" stroke="gray" stroke-width="0.2" /><circle cx="35mm" cy="25mm" fill="white" r="2.5mm" stroke="gray" stroke-width="0.2" /><circle cx="40mm" cy="25mm" fill="red" r="2.5mm" stroke="black" stroke-width="1" /><circle cx="45mm" cy="25mm" fill="white" r="2.5mm" stroke="gray" stroke-width="0.2" /><circle cx="50mm" cy="25mm" fill="white" r="2.5mm" stroke="gray" stroke-width="0.2" /><circle cx="55mm" cy="25mm" fill="red" r="2.5mm" stroke="black" stroke-width="1" /><circle cx="35mm" cy="30mm" fill="white" r="2.5mm" stroke="gray" stroke-width="0.2" /><circle cx="40mm" cy="30mm" fill="red" r="2.5mm" stroke="black" stroke-width="1" /><circle cx="45mm" cy="30mm" fill="white" r="2.5mm" stroke="gray" stroke-width="0.2" /><circle cx="50mm" cy="30mm" fill="white" r="2.5mm" stroke="gray" stroke-width="0.2" /><circle cx="55mm" cy="30mm" fill="red" r="2.5mm" stroke="black" stroke-width="1" /><circle cx="35mm" cy="35mm" fill="red" r="2.5mm" stroke="black" stroke-width="1" /><circle cx="40mm" cy="35mm" fill="red" r="2.5mm" stroke="black" stroke-width="1" /><circle cx="45mm" cy="35mm" fill="red" r="2.5mm" stroke="black" stroke-width="1" /><circle cx="50mm" cy="35mm" fill="red" r="2.5mm" stroke="black" stroke-width="1" /><circle cx="55mm" cy="35mm" fill="white" r="2.5mm" stroke="gray" stroke-width="0.2" /></g><g id="ltrbox"><circle cx="65mm" cy="5mm" fill="white" r="2.5mm" stroke="gray" stroke-width="0.2" /><circle cx="70mm" cy="5mm" fill="red" r="2.5mm" stroke="black" stroke-width="1" /><circle cx="75mm" cy="5mm" fill="red" r="2.5mm" stroke="black" stroke-width="1" /><circle cx="80mm" cy="5mm" fill="red" r="2.5mm" stroke="black" stroke-width="1" /><circle cx="85mm" cy="5mm" fill="white" r="2.5mm" stroke="gray" stroke-width="0.2" /><circle cx="65mm" cy="10mm" fill="red" r="2.5mm" stroke="black" stroke-width="1" /><circle cx="70mm" cy="10mm" fill="white" r="2.5mm" stroke="gray" stroke-width="0.2" /><circle cx="75mm" cy="10mm" fill="white" r="2.5mm" stroke="gray" stroke-width="0.2" /><circle cx="80mm" cy="10mm" fill="white" r="2.5mm" stroke="gray" stroke-width="0.2" /><circle cx="85mm" cy="10mm" fill="red" r="2.5mm" stroke="black" stroke-width="1" /><circle cx="65mm" cy="15mm" fill="red" r="2.5mm" stroke="black" stroke-width="1" /><circle cx="70mm" cy="15mm" fill="white" r="2.5mm" stroke="gray" stroke-width="0.2" /><circle cx="75mm" cy="15mm" fill="white" r="2.5mm" stroke="gray" stroke-width="0.2" /><circle cx="80mm" cy="15mm" fill="white" r="2.5mm" stroke="gray" stroke-width="0.2" /><circle cx="85mm" cy="15mm" fill="white" r="2.5mm" stroke="gray" stroke-width="0.2" /><circle cx="65mm" cy="20mm" fill="red" r="2.5mm" stroke="black" stroke-width="1" /><circle cx="70mm" cy="20mm" fill="white" r="2.5mm" stroke="gray" stroke-width="0.2" /><circle cx="75mm" cy="20mm" fill="white" r="2.5mm" stroke="gray" stroke-width="0.2" /><circle cx="80mm" cy="20mm" fill="white" r="2.5mm" stroke="gray" stroke-width="0.2" /><circle cx="85mm" cy="20mm" fill="white" r="2.5mm" stroke="gray" stroke-width="0.2" /><circle cx="65mm" cy="25mm" fill="red" r="2.5mm" stroke="black" stroke-width="1" /><circle cx="70mm" cy="25mm" fill="white" r="2.5mm" stroke="gray" stroke-width="0.2" /><circle cx="75mm" cy="25mm" fill="white" r="2.5mm" stroke="gray" stroke-width="0.2" /><circle cx="80mm" cy="25mm" fill="white" r="2.5mm" stroke="gray" stroke-width="0.2" /><circle cx="85mm" cy="25mm" fill="white" r="2.5mm" stroke="gray" stroke-width="0.2" /><circle cx="65mm" cy="30mm" fill="red" r="2.5mm" stroke="black" stroke-width="1" /><circle cx="70mm" cy="30mm" fill="white" r="2.5mm" stroke="gray" stroke-width="0.2" /><circle cx="75mm" cy="30mm" fill="white" r="2.5mm" stroke="gray" stroke-width="0.2" /><circle cx="80mm" cy="30mm" fill="white" r="2.5mm" stroke="gray" stroke-width="0.2" /><circle cx="85mm" cy="30mm" fill="red" r="2.5mm" stroke="black" stroke-width="1" /><circle cx="65mm" cy="35mm" fill="white" r="2.5mm" stroke="gray" stroke-width="0.2" /><circle cx="70mm" cy="35mm" fill="red" r="2.5mm" stroke="black" stroke-width="1" /><circle cx="75mm" cy="35mm" fill="red" r="2.5mm" stroke="black" stroke-width="1" /><circle cx="80mm" cy="35mm" fill="red" r="2.5mm" stroke="black" stroke-width="1" /><circle cx="85mm" cy="35mm" fill="white" r="2.5mm" stroke="gray" stroke-width="0.2" /></g><g id="ltrbox"><circle cx="95mm" cy="5mm" fill="red" r="2.5mm" stroke="black" stroke-width="1" /><circle cx="100mm" cy="5mm" fill="red" r="2.5mm" stroke="black" stroke-width="1" /><circle cx="105mm" cy="5mm" fill="red" r="2.5mm" stroke="black" stroke-width="1" /><circle cx="110mm" cy="5mm" fill="red" r="2.5mm" stroke="black" stroke-width="1" /><circle cx="115mm" cy="5mm" fill="white" r="2.5mm" stroke="gray" stroke-width="0.2" /><circle cx="95mm" cy="10mm" fill="white" r="2.5mm" stroke="gray" stroke-width="0.2" /><circle cx="100mm" cy="10mm" fill="red" r="2.5mm" stroke="black" stroke-width="1" /><circle cx="105mm" cy="10mm" fill="white" r="2.5mm" stroke="gray" stroke-width="0.2" /><circle cx="110mm" cy="10mm" fill="white" r="2.5mm" stroke="gray" stroke-width="0.2" /><circle cx="115mm" cy="10mm" fill="red" r="2.5mm" stroke="black" stroke-width="1" /><circle cx="95mm" cy="15mm" fill="white" r="2.5mm" stroke="gray" stroke-width="0.2" /><circle cx="100mm" cy="15mm" fill="red" r="2.5mm" stroke="black" stroke-width="1" /><circle cx="105mm" cy="15mm" fill="white" r="2.5mm" stroke="gray" stroke-width="0.2" /><circle cx="110mm" cy="15mm" fill="white" r="2.5mm" stroke="gray" stroke-width="0.2" /><circle cx="115mm" cy="15mm" fill="red" r="2.5mm" stroke="black" stroke-width="1" /><circle cx="95mm" cy="20mm" fill="white" r="2.5mm" stroke="gray" stroke-width="0.2" /><circle cx="100mm" cy="20mm" fill="red" r="2.5mm" stroke="black" stroke-width="1" /><circle cx="105mm" cy="20mm" fill="white" r="2.5mm" stroke="gray" stroke-width="0.2" /><circle cx="110mm" cy="20mm" fill="white" r="2.5mm" stroke="gray" stroke-width="0.2" /><circle cx="115mm" cy="20mm" fill="red" r="2.5mm" stroke="black" stroke-width="1" /><circle cx="95mm" cy="25mm" fill="white" r="2.5mm" stroke="gray" stroke-width="0.2" /><circle cx="100mm" cy="25mm" fill="red" r="2.5mm" stroke="black" stroke-width="1" /><circle cx="105mm" cy="25mm" fill="white" r="2.5mm" stroke="gray" stroke-width="0.2" /><circle cx="110mm" cy="25mm" fill="white" r="2.5mm" stroke="gray" stroke-width="0.2" /><circle cx="115mm" cy="25mm" fill="red" r="2.5mm" stroke="black" stroke-width="1" /><circle cx="95mm" cy="30mm" fill="white" r="2.5mm" stroke="gray" stroke-width="0.2" /><circle cx="100mm" cy="30mm" fill="red" r="2.5mm" stroke="black" stroke-width="1" /><circle cx="105mm" cy="30mm" fill="white" r="2.5mm" stroke="gray" stroke-width="0.2" /><circle cx="110mm" cy="30mm" fill="white" r="2.5mm" stroke="gray" stroke-width="0.2" /><circle cx="115mm" cy="30mm" fill="red" r="2.5mm" stroke="black" stroke-width="1" /><circle cx="95mm" cy="35mm" fill="red" r="2.5mm" stroke="black" stroke-width="1" /><circle cx="100mm" cy="35mm" fill="red" r="2.5mm" stroke="black" stroke-width="1" /><circle cx="105mm" cy="35mm" fill="red" r="2.5mm" stroke="black" stroke-width="1" /><circle cx="110mm" cy="35mm" fill="red" r="2.5mm" stroke="black" stroke-width="1" /><circle cx="115mm" cy="35mm" fill="white" r="2.5mm" stroke="gray" stroke-width="0.2" /></g><g id="ltrbox"><circle cx="125mm" cy="5mm" fill="white" r="2.5mm" stroke="gray" stroke-width="0.2" /><circle cx="130mm" cy="5mm" fill="red" r="2.5mm" stroke="black" stroke-width="1" /><circle cx="135mm" cy="5mm" fill="red" r="2.5mm" stroke="black" stroke-width="1" /><circle cx="140mm" cy="5mm" fill="red" r="2.5mm" stroke="black" stroke-width="1" /><circle cx="145mm" cy="5mm" fill="white" r="2.5mm" stroke="gray" stroke-width="0.2" /><circle cx="125mm" cy="10mm" fill="white" r="2.5mm" stroke="gray" stroke-width="0.2" /><circle cx="130mm" cy="10mm" fill="white" r="2.5mm" stroke="gray" stroke-width="0.2" /><circle cx="135mm" cy="10mm" fill="red" r="2.5mm" stroke="black" stroke-width="1" /><circle cx="140mm" cy="10mm" fill="white" r="2.5mm" stroke="gray" stroke-width="0.2" /><circle cx="145mm" cy="10mm" fill="white" r="2.5mm" stroke="gray" stroke-width="0.2" /><circle cx="125mm" cy="15mm" fill="white" r="2.5mm" stroke="gray" stroke-width="0.2" /><circle cx="130mm" cy="15mm" fill="white" r="2.5mm" stroke="gray" stroke-width="0.2" /><circle cx="135mm" cy="15mm" fill="red" r="2.5mm" stroke="black" stroke-width="1" /><circle cx="140mm" cy="15mm" fill="white" r="2.5mm" stroke="gray" stroke-width="0.2" /><circle cx="145mm" cy="15mm" fill="white" r="2.5mm" stroke="gray" stroke-width="0.2" /><circle cx="125mm" cy="20mm" fill="white" r="2.5mm" stroke="gray" stroke-width="0.2" /><circle cx="130mm" cy="20mm" fill="white" r="2.5mm" stroke="gray" stroke-width="0.2" /><circle cx="135mm" cy="20mm" fill="red" r="2.5mm" stroke="black" stroke-width="1" /><circle cx="140mm" cy="20mm" fill="white" r="2.5mm" stroke="gray" stroke-width="0.2" /><circle cx="145mm" cy="20mm" fill="white" r="2.5mm" stroke="gray" stroke-width="0.2" /><circle cx="125mm" cy="25mm" fill="white" r="2.5mm" stroke="gray" stroke-width="0.2" /><circle cx="130mm" cy="25mm" fill="white" r="2.5mm" stroke="gray" stroke-width="0.2" /><circle cx="135mm" cy="25mm" fill="red" r="2.5mm" stroke="black" stroke-width="1" /><circle cx="140mm" cy="25mm" fill="white" r="2.5mm" stroke="gray" stroke-width="0.2" /><circle cx="145mm" cy="25mm" fill="white" r="2.5mm" stroke="gray" stroke-width="0.2" /><circle cx="125mm" cy="30mm" fill="white" r="2.5mm" stroke="gray" stroke-width="0.2" /><circle cx="130mm" cy="30mm" fill="white" r="2.5mm" stroke="gray" stroke-width="0.2" /><circle cx="135mm" cy="30mm" fill="red" r="2.5mm" stroke="black" stroke-width="1" /><circle cx="140mm" cy="30mm" fill="white" r="2.5mm" stroke="gray" stroke-width="0.2" /><circle cx="145mm" cy="30mm" fill="white" r="2.5mm" stroke="gray" stroke-width="0.2" /><circle cx="125mm" cy="35mm" fill="white" r="2.5mm" stroke="gray" stroke-width="0.2" /><circle cx="130mm" cy="35mm" fill="red" r="2.5mm" stroke="black" stroke-width="1" /><circle cx="135mm" cy="35mm" fill="red" r="2.5mm" stroke="black" stroke-width="1" /><circle cx="140mm" cy="35mm" fill="red" r="2.5mm" stroke="black" stroke-width="1" /><circle cx="145mm" cy="35mm" fill="white" r="2.5mm" stroke="gray" stroke-width="0.2" /></g><g id="ltrbox"><circle cx="155mm" cy="5mm" fill="white" r="2.5mm" stroke="gray" stroke-width="0.2" /><circle cx="160mm" cy="5mm" fill="red" r="2.5mm" stroke="black" stroke-width="1" /><circle cx="165mm" cy="5mm" fill="red" r="2.5mm" stroke="black" stroke-width="1" /><circle cx="170mm" cy="5mm" fill="red" r="2.5mm" stroke="black" stroke-width="1" /><circle cx="175mm" cy="5mm" fill="white" r="2.5mm" stroke="gray" stroke-width="0.2" /><circle cx="155mm" cy="10mm" fill="red" r="2.5mm" stroke="black" stroke-width="1" /><circle cx="160mm" cy="10mm" fill="white" r="2.5mm" stroke="gray" stroke-width="0.2" /><circle cx="165mm" cy="10mm" fill="white" r="2.5mm" stroke="gray" stroke-width="0.2" /><circle cx="170mm" cy="10mm" fill="white" r="2.5mm" stroke="gray" stroke-width="0.2" /><circle cx="175mm" cy="10mm" fill="red" r="2.5mm" stroke="black" stroke-width="1" /><circle cx="155mm" cy="15mm" fill="red" r="2.5mm" stroke="black" stroke-width="1" /><circle cx="160mm" cy="15mm" fill="white" r="2.5mm" stroke="gray" stroke-width="0.2" /><circle cx="165mm" cy="15mm" fill="white" r="2.5mm" stroke="gray" stroke-width="0.2" /><circle cx="170mm" cy="15mm" fill="white" r="2.5mm" stroke="gray" stroke-width="0.2" /><circle cx="175mm" cy="15mm" fill="white" r="2.5mm" stroke="gray" stroke-width="0.2" /><circle cx="155mm" cy="20mm" fill="red" r="2.5mm" stroke="black" stroke-width="1" /><circle cx="160mm" cy="20mm" fill="white" r="2.5mm" stroke="gray" stroke-width="0.2" /><circle cx="165mm" cy="20mm" fill="white" r="2.5mm" stroke="gray" stroke-width="0.2" /><circle cx="170mm" cy="20mm" fill="white" r="2.5mm" stroke="gray" stroke-width="0.2" /><circle cx="175mm" cy="20mm" fill="white" r="2.5mm" stroke="gray" stroke-width="0.2" /><circle cx="155mm" cy="25mm" fill="red" r="2.5mm" stroke="black" stroke-width="1" /><circle cx="160mm" cy="25mm" fill="white" r="2.5mm" stroke="gray" stroke-width="0.2" /><circle cx="165mm" cy="25mm" fill="white" r="2.5mm" stroke="gray" stroke-width="0.2" /><circle cx="170mm" cy="25mm" fill="white" r="2.5mm" stroke="gray" stroke-width="0.2" /><circle cx="175mm" cy="25mm" fill="white" r="2.5mm" stroke="gray" stroke-width="0.2" /><circle cx="155mm" cy="30mm" fill="red" r="2.5mm" stroke="black" stroke-width="1" /><circle cx="160mm" cy="30mm" fill="white" r="2.5mm" stroke="gray" stroke-width="0.2" /><circle cx="165mm" cy="30mm" fill="white" r="2.5mm" stroke="gray" stroke-width="0.2" /><circle cx="170mm" cy="30mm" fill="white" r="2.5mm" stroke="gray" stroke-width="0.2" /><circle cx="175mm" cy="30mm" fill="red" r="2.5mm" stroke="black" stroke-width="1" /><circle cx="155mm" cy="35mm" fill="white" r="2.5mm" stroke="gray" stroke-width="0.2" /><circle cx="160mm" cy="35mm" fill="red" r="2.5mm" stroke="black" stroke-width="1" /><circle cx="165mm" cy="35mm" fill="red" r="2.5mm" stroke="black" stroke-width="1" /><circle cx="170mm" cy="35mm" fill="red" r="2.5mm" stroke="black" stroke-width="1" /><circle cx="175mm" cy="35mm" fill="white" r="2.5mm" stroke="gray" stroke-width="0.2" /></g><g id="ltrbox"><circle cx="5mm" cy="45mm" fill="white" r="2.5mm" stroke="gray" stroke-width="0.2" /><circle cx="10mm" cy="45mm" fill="red" r="2.5mm" stroke="black" stroke-width="1" /><circle cx="15mm" cy="45mm" fill="red" r="2.5mm" stroke="black" stroke-width="1" /><circle cx="20mm" cy="45mm" fill="red" r="2.5mm" stroke="black" stroke-width="1" /><circle cx="25mm" cy="45mm" fill="white" r="2.5mm" stroke="gray" stroke-width="0.2" /><circle cx="5mm" cy="50mm" fill="red" r="2.5mm" stroke="black" stroke-width="1" /><circle cx="10mm" cy="50mm" fill="white" r="2.5mm" stroke="gray" stroke-width="0.2" /><circle cx="15mm" cy="50mm" fill="white" r="2.5mm" stroke="gray" stroke-width="0.2" /><circle cx="20mm" cy="50mm" fill="white" r="2.5mm" stroke="gray" stroke-width="0.2" /><circle cx="25mm" cy="50mm" fill="red" r="2.5mm" stroke="black" stroke-width="1" /><circle cx="5mm" cy="55mm" fill="red" r="2.5mm" stroke="black" stroke-width="1" /><circle cx="10mm" cy="55mm" fill="white" r="2.5mm" stroke="gray" stroke-width="0.2" /><circle cx="15mm" cy="55mm" fill="white" r="2.5mm" stroke="gray" stroke-width="0.2" /><circle cx="20mm" cy="55mm" fill="white" r="2.5mm" stroke="gray" stroke-width="0.2" /><circle cx="25mm" cy="55mm" fill="red" r="2.5mm" stroke="black" stroke-width="1" /><circle cx="5mm" cy="60mm" fill="red" r="2.5mm" stroke="black" stroke-width="1" /><circle cx="10mm" cy="60mm" fill="white" r="2.5mm" stroke="gray" stroke-width="0.2" /><circle cx="15mm" cy="60mm" fill="white" r="2.5mm" stroke="gray" stroke-width="0.2" /><circle cx="20mm" cy="60mm" fill="white" r="2.5mm" stroke="gray" stroke-width="0.2" /><circle cx="25mm" cy="60mm" fill="red" r="2.5mm" stroke="black" stroke-width="1" /><circle cx="5mm" cy="65mm" fill="red" r="2.5mm" stroke="black" stroke-width="1" /><circle cx="10mm" cy="65mm" fill="white" r="2.5mm" stroke="gray" stroke-width="0.2" /><circle cx="15mm" cy="65mm" fill="white" r="2.5mm" stroke="gray" stroke-width="0.2" /><circle cx="20mm" cy="65mm" fill="white" r="2.5mm" stroke="gray" stroke-width="0.2" /><circle cx="25mm" cy="65mm" fill="red" r="2.5mm" stroke="black" stroke-width="1" /><circle cx="5mm" cy="70mm" fill="red" r="2.5mm" stroke="black" stroke-width="1" /><circle cx="10mm" cy="70mm" fill="white" r="2.5mm" stroke="gray" stroke-width="0.2" /><circle cx="15mm" cy="70mm" fill="white" r="2.5mm" stroke="gray" stroke-width="0.2" /><circle cx="20mm" cy="70mm" fill="white" r="2.5mm" stroke="gray" stroke-width="0.2" /><circle cx="25mm" cy="70mm" fill="red" r="2.5mm" stroke="black" stroke-width="1" /><circle cx="5mm" cy="75mm" fill="white" r="2.5mm" stroke="gray" stroke-width="0.2" /><circle cx="10mm" cy="75mm" fill="red" r="2.5mm" stroke="black" stroke-width="1" /><circle cx="15mm" cy="75mm" fill="red" r="2.5mm" stroke="black" stroke-width="1" /><circle cx="20mm" cy="75mm" fill="red" r="2.5mm" stroke="black" stroke-width="1" /><circle cx="25mm" cy="75mm" fill="white" r="2.5mm" stroke="gray" stroke-width="0.2" /></g><g id="ltrbox"><circle cx="35mm" cy="45mm" fill="red" r="2.5mm" stroke="black" stroke-width="1" /><circle cx="40mm" cy="45mm" fill="red" r="2.5mm" stroke="black" stroke-width="1" /><circle cx="45mm" cy="45mm" fill="red" r="2.5mm" stroke="black" stroke-width="1" /><circle cx="50mm" cy="45mm" fill="red" r="2.5mm" stroke="black" stroke-width="1" /><circle cx="55mm" cy="45mm" fill="white" r="2.5mm" stroke="gray" stroke-width="0.2" /><circle cx="35mm" cy="50mm" fill="red" r="2.5mm" stroke="black" stroke-width="1" /><circle cx="40mm" cy="50mm" fill="white" r="2.5mm" stroke="gray" stroke-width="0.2" /><circle cx="45mm" cy="50mm" fill="white" r="2.5mm" stroke="gray" stroke-width="0.2" /><circle cx="50mm" cy="50mm" fill="white" r="2.5mm" stroke="gray" stroke-width="0.2" /><circle cx="55mm" cy="50mm" fill="red" r="2.5mm" stroke="black" stroke-width="1" /><circle cx="35mm" cy="55mm" fill="red" r="2.5mm" stroke="black" stroke-width="1" /><circle cx="40mm" cy="55mm" fill="white" r="2.5mm" stroke="gray" stroke-width="0.2" /><circle cx="45mm" cy="55mm" fill="white" r="2.5mm" stroke="gray" stroke-width="0.2" /><circle cx="50mm" cy="55mm" fill="white" r="2.5mm" stroke="gray" stroke-width="0.2" /><circle cx="55mm" cy="55mm" fill="red" r="2.5mm" stroke="black" stroke-width="1" /><circle cx="35mm" cy="60mm" fill="red" r="2.5mm" stroke="black" stroke-width="1" /><circle cx="40mm" cy="60mm" fill="red" r="2.5mm" stroke="black" stroke-width="1" /><circle cx="45mm" cy="60mm" fill="red" r="2.5mm" stroke="black" stroke-width="1" /><circle cx="50mm" cy="60mm" fill="red" r="2.5mm" stroke="black" stroke-width="1" /><circle cx="55mm" cy="60mm" fill="white" r="2.5mm" stroke="gray" stroke-width="0.2" /><circle cx="35mm" cy="65mm" fill="red" r="2.5mm" stroke="black" stroke-width="1" /><circle cx="40mm" cy="65mm" fill="white" r="2.5mm" stroke="gray" stroke-width="0.2" /><circle cx="45mm" cy="65mm" fill="red" r="2.5mm" stroke="black" stroke-width="1" /><circle cx="50mm" cy="65mm" fill="white" r="2.5mm" stroke="gray" stroke-width="0.2" /><circle cx="55mm" cy="65mm" fill="white" r="2.5mm" stroke="gray" stroke-width="0.2" /><circle cx="35mm" cy="70mm" fill="red" r="2.5mm" stroke="black" stroke-width="1" /><circle cx="40mm" cy="70mm" fill="white" r="2.5mm" stroke="gray" stroke-width="0.2" /><circle cx="45mm" cy="70mm" fill="white" r="2.5mm" stroke="gray" stroke-width="0.2" /><circle cx="50mm" cy="70mm" fill="red" r="2.5mm" stroke="black" stroke-width="1" /><circle cx="55mm" cy="70mm" fill="white" r="2.5mm" stroke="gray" stroke-width="0.2" /><circle cx="35mm" cy="75mm" fill="red" r="2.5mm" stroke="black" stroke-width="1" /><circle cx="40mm" cy="75mm" fill="white" r="2.5mm" stroke="gray" stroke-width="0.2" /><circle cx="45mm" cy="75mm" fill="white" r="2.5mm" stroke="gray" stroke-width="0.2" /><circle cx="50mm" cy="75mm" fill="white" r="2.5mm" stroke="gray" stroke-width="0.2" /><circle cx="55mm" cy="75mm" fill="red" r="2.5mm" stroke="black" stroke-width="1" /></g><g id="ltrbox"><circle cx="5mm" cy="85mm" fill="white" r="2.5mm" stroke="gray" stroke-width="0.2" /><circle cx="10mm" cy="85mm" fill="red" r="2.5mm" stroke="black" stroke-width="1" /><circle cx="15mm" cy="85mm" fill="red" r="2.5mm" stroke="black" stroke-width="1" /><circle cx="20mm" cy="85mm" fill="red" r="2.5mm" stroke="black" stroke-width="1" /><circle cx="25mm" cy="85mm" fill="red" r="2.5mm" stroke="black" stroke-width="1" /><circle cx="5mm" cy="90mm" fill="red" r="2.5mm" stroke="black" stroke-width="1" /><circle cx="10mm" cy="90mm" fill="white" r="2.5mm" stroke="gray" stroke-width="0.2" /><circle cx="15mm" cy="90mm" fill="white" r="2.5mm" stroke="gray" stroke-width="0.2" /><circle cx="20mm" cy="90mm" fill="white" r="2.5mm" stroke="gray" stroke-width="0.2" /><circle cx="25mm" cy="90mm" fill="white" r="2.5mm" stroke="gray" stroke-width="0.2" /><circle cx="5mm" cy="95mm" fill="red" r="2.5mm" stroke="black" stroke-width="1" /><circle cx="10mm" cy="95mm" fill="white" r="2.5mm" stroke="gray" stroke-width="0.2" /><circle cx="15mm" cy="95mm" fill="white" r="2.5mm" stroke="gray" stroke-width="0.2" /><circle cx="20mm" cy="95mm" fill="white" r="2.5mm" stroke="gray" stroke-width="0.2" /><circle cx="25mm" cy="95mm" fill="white" r="2.5mm" stroke="gray" stroke-width="0.2" /><circle cx="5mm" cy="100mm" fill="red" r="2.5mm" stroke="black" stroke-width="1" /><circle cx="10mm" cy="100mm" fill="white" r="2.5mm" stroke="gray" stroke-width="0.2" /><circle cx="15mm" cy="100mm" fill="white" r="2.5mm" stroke="gray" stroke-width="0.2" /><circle cx="20mm" cy="100mm" fill="red" r="2.5mm" stroke="black" stroke-width="1" /><circle cx="25mm" cy="100mm" fill="red" r="2.5mm" stroke="black" stroke-width="1" /><circle cx="5mm" cy="105mm" fill="red" r="2.5mm" stroke="black" stroke-width="1" /><circle cx="10mm" cy="105mm" fill="white" r="2.5mm" stroke="gray" stroke-width="0.2" /><circle cx="15mm" cy="105mm" fill="white" r="2.5mm" stroke="gray" stroke-width="0.2" /><circle cx="20mm" cy="105mm" fill="white" r="2.5mm" stroke="gray" stroke-width="0.2" /><circle cx="25mm" cy="105mm" fill="red" r="2.5mm" stroke="black" stroke-width="1" /><circle cx="5mm" cy="110mm" fill="red" r="2.5mm" stroke="black" stroke-width="1" /><circle cx="10mm" cy="110mm" fill="white" r="2.5mm" stroke="gray" stroke-width="0.2" /><circle cx="15mm" cy="110mm" fill="white" r="2.5mm" stroke="gray" stroke-width="0.2" /><circle cx="20mm" cy="110mm" fill="white" r="2.5mm" stroke="gray" stroke-width="0.2" /><circle cx="25mm" cy="110mm" fill="red" r="2.5mm" stroke="black" stroke-width="1" /><circle cx="5mm" cy="115mm" fill="white" r="2.5mm" stroke="gray" stroke-width="0.2" /><circle cx="10mm" cy="115mm" fill="red" r="2.5mm" stroke="black" stroke-width="1" /><circle cx="15mm" cy="115mm" fill="red" r="2.5mm" stroke="black" stroke-width="1" /><circle cx="20mm" cy="115mm" fill="red" r="2.5mm" stroke="black" stroke-width="1" /><circle cx="25mm" cy="115mm" fill="red" r="2.5mm" stroke="black" stroke-width="1" /></g><g id="ltrbox"><circle cx="35mm" cy="85mm" fill="red" r="2.5mm" stroke="black" stroke-width="1" /><circle cx="40mm" cy="85mm" fill="red" r="2.5mm" stroke="black" stroke-width="1" /><circle cx="45mm" cy="85mm" fill="red" r="2.5mm" stroke="black" stroke-width="1" /><circle cx="50mm" cy="85mm" fill="red" r="2.5mm" stroke="black" stroke-width="1" /><circle cx="55mm" cy="85mm" fill="red" r="2.5mm" stroke="black" stroke-width="1" /><circle cx="35mm" cy="90mm" fill="white" r="2.5mm" stroke="gray" stroke-width="0.2" /><circle cx="40mm" cy="90mm" fill="white" r="2.5mm" stroke="gray" stroke-width="0.2" /><circle cx="45mm" cy="90mm" fill="red" r="2.5mm" stroke="black" stroke-width="1" /><circle cx="50mm" cy="90mm" fill="white" r="2.5mm" stroke="gray" stroke-width="0.2" /><circle cx="55mm" cy="90mm" fill="white" r="2.5mm" stroke="gray" stroke-width="0.2" /><circle cx="35mm" cy="95mm" fill="white" r="2.5mm" stroke="gray" stroke-width="0.2" /><circle cx="40mm" cy="95mm" fill="white" r="2.5mm" stroke="gray" stroke-width="0.2" /><circle cx="45mm" cy="95mm" fill="red" r="2.5mm" stroke="black" stroke-width="1" /><circle cx="50mm" cy="95mm" fill="white" r="2.5mm" stroke="gray" stroke-width="0.2" /><circle cx="55mm" cy="95mm" fill="white" r="2.5mm" stroke="gray" stroke-width="0.2" /><circle cx="35mm" cy="100mm" fill="white" r="2.5mm" stroke="gray" stroke-width="0.2" /><circle cx="40mm" cy="100mm" fill="white" r="2.5mm" stroke="gray" stroke-width="0.2" /><circle cx="45mm" cy="100mm" fill="red" r="2.5mm" stroke="black" stroke-width="1" /><circle cx="50mm" cy="100mm" fill="white" r="2.5mm" stroke="gray" stroke-width="0.2" /><circle cx="55mm" cy="100mm" fill="white" r="2.5mm" stroke="gray" stroke-width="0.2" /><circle cx="35mm" cy="105mm" fill="white" r="2.5mm" stroke="gray" stroke-width="0.2" /><circle cx="40mm" cy="105mm" fill="white" r="2.5mm" stroke="gray" stroke-width="0.2" /><circle cx="45mm" cy="105mm" fill="red" r="2.5mm" stroke="black" stroke-width="1" /><circle cx="50mm" cy="105mm" fill="white" r="2.5mm" stroke="gray" stroke-width="0.2" /><circle cx="55mm" cy="105mm" fill="white" r="2.5mm" stroke="gray" stroke-width="0.2" /><circle cx="35mm" cy="110mm" fill="white" r="2.5mm" stroke="gray" stroke-width="0.2" /><circle cx="40mm" cy="110mm" fill="white" r="2.5mm" stroke="gray" stroke-width="0.2" /><circle cx="45mm" cy="110mm" fill="red" r="2.5mm" stroke="black" stroke-width="1" /><circle cx="50mm" cy="110mm" fill="white" r="2.5mm" stroke="gray" stroke-width="0.2" /><circle cx="55mm" cy="110mm" fill="white" r="2.5mm" stroke="gray" stroke-width="0.2" /><circle cx="35mm" cy="115mm" fill="white" r="2.5mm" stroke="gray" stroke-width="0.2" /><circle cx="40mm" cy="115mm" fill="white" r="2.5mm" stroke="gray" stroke-width="0.2" /><circle cx="45mm" cy="115mm" fill="red" r="2.5mm" stroke="black" stroke-width="1" /><circle cx="50mm" cy="115mm" fill="white" r="2.5mm" stroke="gray" stroke-width="0.2" /><circle cx="55mm" cy="115mm" fill="white" r="2.5mm" stroke="gray" stroke-width="0.2" /></g><g id="ltrbox"><circle cx="65mm" cy="85mm" fill="red" r="2.5mm" stroke="black" stroke-width="1" /><circle cx="70mm" cy="85mm" fill="red" r="2.5mm" stroke="black" stroke-width="1" /><circle cx="75mm" cy="85mm" fill="red" r="2.5mm" stroke="black" stroke-width="1" /><circle cx="80mm" cy="85mm" fill="red" r="2.5mm" stroke="black" stroke-width="1" /><circle cx="85mm" cy="85mm" fill="red" r="2.5mm" stroke="black" stroke-width="1" /><circle cx="65mm" cy="90mm" fill="red" r="2.5mm" stroke="black" stroke-width="1" /><circle cx="70mm" cy="90mm" fill="white" r="2.5mm" stroke="gray" stroke-width="0.2" /><circle cx="75mm" cy="90mm" fill="white" r="2.5mm" stroke="gray" stroke-width="0.2" /><circle cx="80mm" cy="90mm" fill="white" r="2.5mm" stroke="gray" stroke-width="0.2" /><circle cx="85mm" cy="90mm" fill="white" r="2.5mm" stroke="gray" stroke-width="0.2" /><circle cx="65mm" cy="95mm" fill="red" r="2.5mm" stroke="black" stroke-width="1" /><circle cx="70mm" cy="95mm" fill="white" r="2.5mm" stroke="gray" stroke-width="0.2" /><circle cx="75mm" cy="95mm" fill="white" r="2.5mm" stroke="gray" stroke-width="0.2" /><circle cx="80mm" cy="95mm" fill="white" r="2.5mm" stroke="gray" stroke-width="0.2" /><circle cx="85mm" cy="95mm" fill="white" r="2.5mm" stroke="gray" stroke-width="0.2" /><circle cx="65mm" cy="100mm" fill="red" r="2.5mm" stroke="black" stroke-width="1" /><circle cx="70mm" cy="100mm" fill="red" r="2.5mm" stroke="black" stroke-width="1" /><circle cx="75mm" cy="100mm" fill="red" r="2.5mm" stroke="black" stroke-width="1" /><circle cx="80mm" cy="100mm" fill="white" r="2.5mm" stroke="gray" stroke-width="0.2" /><circle cx="85mm" cy="100mm" fill="white" r="2.5mm" stroke="gray" stroke-width="0.2" /><circle cx="65mm" cy="105mm" fill="red" r="2.5mm" stroke="black" stroke-width="1" /><circle cx="70mm" cy="105mm" fill="white" r="2.5mm" stroke="gray" stroke-width="0.2" /><circle cx="75mm" cy="105mm" fill="white" r="2.5mm" stroke="gray" stroke-width="0.2" /><circle cx="80mm" cy="105mm" fill="white" r="2.5mm" stroke="gray" stroke-width="0.2" /><circle cx="85mm" cy="105mm" fill="white" r="2.5mm" stroke="gray" stroke-width="0.2" /><circle cx="65mm" cy="110mm" fill="red" r="2.5mm" stroke="black" stroke-width="1" /><circle cx="70mm" cy="110mm" fill="white" r="2.5mm" stroke="gray" stroke-width="0.2" /><circle cx="75mm" cy="110mm" fill="white" r="2.5mm" stroke="gray" stroke-width="0.2" /><circle cx="80mm" cy="110mm" fill="white" r="2.5mm" stroke="gray" stroke-width="0.2" /><circle cx="85mm" cy="110mm" fill="white" r="2.5mm" stroke="gray" stroke-width="0.2" /><circle cx="65mm" cy="115mm" fill="red" r="2.5mm" stroke="black" stroke-width="1" /><circle cx="70mm" cy="115mm" fill="white" r="2.5mm" stroke="gray" stroke-width="0.2" /><circle cx="75mm" cy="115mm" fill="white" r="2.5mm" stroke="gray" stroke-width="0.2" /><circle cx="80mm" cy="115mm" fill="white" r="2.5mm" stroke="gray" stroke-width="0.2" /><circle cx="85mm" cy="115mm" fill="white" r="2.5mm" stroke="gray" stroke-width="0.2" /></g><g id="ltrbox"><circle cx="95mm" cy="85mm" fill="white" r="2.5mm" stroke="gray" stroke-width="0.2" /><circle cx="100mm" cy="85mm" fill="red" r="2.5mm" stroke="black" stroke-width="1" /><circle cx="105mm" cy="85mm" fill="red" r="2.5mm" stroke="black" stroke-width="1" /><circle cx="110mm" cy="85mm" fill="red" r="2.5mm" stroke="black" stroke-width="1" /><circle cx="115mm" cy="85mm" fill="white" r="2.5mm" stroke="gray" stroke-width="0.2" /><circle cx="95mm" cy="90mm" fill="red" r="2.5mm" stroke="black" stroke-width="1" /><circle cx="100mm" cy="90mm" fill="white" r="2.5mm" stroke="gray" stroke-width="0.2" /><circle cx="105mm" cy="90mm" fill="white" r="2.5mm" stroke="gray" stroke-width="0.2" /><circle cx="110mm" cy="90mm" fill="white" r="2.5mm" stroke="gray" stroke-width="0.2" /><circle cx="115mm" cy="90mm" fill="red" r="2.5mm" stroke="black" stroke-width="1" /><circle cx="95mm" cy="95mm" fill="red" r="2.5mm" stroke="black" stroke-width="1" /><circle cx="100mm" cy="95mm" fill="white" r="2.5mm" stroke="gray" stroke-width="0.2" /><circle cx="105mm" cy="95mm" fill="white" r="2.5mm" stroke="gray" stroke-width="0.2" /><circle cx="110mm" cy="95mm" fill="white" r="2.5mm" stroke="gray" stroke-width="0.2" /><circle cx="115mm" cy="95mm" fill="red" r="2.5mm" stroke="black" stroke-width="1" /><circle cx="95mm" cy="100mm" fill="red" r="2.5mm" stroke="black" stroke-width="1" /><circle cx="100mm" cy="100mm" fill="white" r="2.5mm" stroke="gray" stroke-width="0.2" /><circle cx="105mm" cy="100mm" fill="white" r="2.5mm" stroke="gray" stroke-width="0.2" /><circle cx="110mm" cy="100mm" fill="white" r="2.5mm" stroke="gray" stroke-width="0.2" /><circle cx="115mm" cy="100mm" fill="red" r="2.5mm" stroke="black" stroke-width="1" /><circle cx="95mm" cy="105mm" fill="red" r="2.5mm" stroke="black" stroke-width="1" /><circle cx="100mm" cy="105mm" fill="white" r="2.5mm" stroke="gray" stroke-width="0.2" /><circle cx="105mm" cy="105mm" fill="white" r="2.5mm" stroke="gray" stroke-width="0.2" /><circle cx="110mm" cy="105mm" fill="white" r="2.5mm" stroke="gray" stroke-width="0.2" /><circle cx="115mm" cy="105mm" fill="red" r="2.5mm" stroke="black" stroke-width="1" /><circle cx="95mm" cy="110mm" fill="red" r="2.5mm" stroke="black" stroke-width="1" /><circle cx="100mm" cy="110mm" fill="white" r="2.5mm" stroke="gray" stroke-width="0.2" /><circle cx="105mm" cy="110mm" fill="white" r="2.5mm" stroke="gray" stroke-width="0.2" /><circle cx="110mm" cy="110mm" fill="white" r="2.5mm" stroke="gray" stroke-width="0.2" /><circle cx="115mm" cy="110mm" fill="red" r="2.5mm" stroke="black" stroke-width="1" /><circle cx="95mm" cy="115mm" fill="white" r="2.5mm" stroke="gray" stroke-width="0.2" /><circle cx="100mm" cy="115mm" fill="red" r="2.5mm" stroke="black" stroke-width="1" /><circle cx="105mm" cy="115mm" fill="red" r="2.5mm" stroke="black" stroke-width="1" /><circle cx="110mm" cy="115mm" fill="red" r="2.5mm" stroke="black" stroke-width="1" /><circle cx="115mm" cy="115mm" fill="white" r="2.5mm" stroke="gray" stroke-width="0.2" /></g></svg>